<svg xmlns="http://www.w3.org/2000/svg" xmlns:xlink="http://www.w3.org/1999/xlink" version="1.1" x="0px" y="0px" viewBox="0 0 90 90" enable-background="new 0 0 90 90" xml:space="preserve"><path fill='#ffffff' d="M81.671,21.323c-2.085-2.084-72.503-1.553-74.054,0c-1.678,1.678-1.684,46.033,0,47.713  c0.558,0.559,12.151,0.896,26.007,1.012l3.068-8.486c0,0,1.987-8.04,7.92-8.04c6.257,0,8.99,9.675,8.99,9.675l2.555,6.848  c13.633-0.116,24.957-0.453,25.514-1.008C83.224,67.483,83.672,23.324,81.671,21.323z M24.572,54.582  c-6.063,0-10.978-4.914-10.978-10.979c0-6.063,4.915-10.978,10.978-10.978s10.979,4.915,10.979,10.978  C35.551,49.668,30.635,54.582,24.572,54.582z M64.334,54.582c-6.063,0-10.979-4.914-10.979-10.979  c0-6.063,4.916-10.978,10.979-10.978c6.062,0,10.978,4.915,10.978,10.978C75.312,49.668,70.396,54.582,64.334,54.582z"/></svg>